<svg width="1280" height="420" viewBox="0 0 1280 420" fill="none" xmlns="http://www.w3.org/2000/svg">
  <defs>
    <linearGradient id="bg" x1="0" y1="0" x2="1280" y2="420" gradientUnits="userSpaceOnUse">
      <stop stop-color="#0C1B33"/>
      <stop offset="1" stop-color="#1A3A2A"/>
    </linearGradient>
    <linearGradient id="glow" x1="130" y1="64" x2="130" y2="356" gradientUnits="userSpaceOnUse">
      <stop stop-color="#6DB33F" stop-opacity="0.35"/>
      <stop offset="1" stop-color="#6DB33F" stop-opacity="0.05"/>
    </linearGradient>
    <filter id="soft" x="0" y="0" width="1280" height="420" filterUnits="userSpaceOnUse" color-interpolation-filters="sRGB">
      <feGaussianBlur stdDeviation="30" result="blur"/>
    </filter>
  </defs>

  <rect width="1280" height="420" rx="26" fill="url(#bg)"/>

  <g filter="url(#soft)" opacity="0.55">
    <circle cx="170" cy="80" r="70" fill="#6DB33F"/>
    <circle cx="1140" cy="340" r="85" fill="#F89820"/>
    <circle cx="980" cy="85" r="55" fill="#5CA7FF"/>
  </g>

  <rect x="52" y="52" width="156" height="316" rx="78" fill="url(#glow)"/>
  <path d="M130 110C107 130 103 165 123 183C142 200 140 220 123 238C106 256 106 285 130 304" stroke="#6DB33F" stroke-width="16" stroke-linecap="round"/>

  <text x="250" y="150" fill="#E9F3FF" font-family="Segoe UI, Arial, sans-serif" font-size="56" font-weight="700">
    EcomWeb Backend
  </text>
  <text x="252" y="200" fill="#B8CCE0" font-family="Segoe UI, Arial, sans-serif" font-size="26" font-weight="500">
    Spring Boot API for Product Catalog Management
  </text>

  <g>
    <rect x="252" y="242" width="165" height="52" rx="26" fill="#1F2F4A" stroke="#2F466A"/>
    <text x="285" y="274" fill="#F89820" font-family="Segoe UI, Arial, sans-serif" font-size="22" font-weight="700">Java 21</text>

    <rect x="435" y="242" width="215" height="52" rx="26" fill="#1F2F4A" stroke="#2F466A"/>
    <text x="465" y="274" fill="#6DB33F" font-family="Segoe UI, Arial, sans-serif" font-size="22" font-weight="700">Spring Boot</text>

    <rect x="668" y="242" width="120" height="52" rx="26" fill="#1F2F4A" stroke="#2F466A"/>
    <text x="707" y="274" fill="#5CA7FF" font-family="Segoe UI, Arial, sans-serif" font-size="22" font-weight="700">H2</text>

    <rect x="806" y="242" width="152" height="52" rx="26" fill="#1F2F4A" stroke="#2F466A"/>
    <text x="837" y="274" fill="#FF6B6B" font-family="Segoe UI, Arial, sans-serif" font-size="22" font-weight="700">Maven</text>
  </g>

  <text x="252" y="335" fill="#95AFC8" font-family="Consolas, Courier New, monospace" font-size="20">
    REST | JPA | In-Memory DB | Multipart Upload
  </text>
</svg>
